<svg xmlns="http://www.w3.org/2000/svg" width="32" height="32" viewBox="0 0 32 32" fill="none"><g clip-path="url(#clip0)"><path d="M1 8C1 7.44771 1.44772 7 2 7H30C30.5523 7 31 7.44772 31 8V25C31 25.5523 30.5523 26 30 26H2C1.44772 26 1 25.5523 1 25V8Z" fill="white"></path><path d="M30 6H2C0.9 6 0 6.9 0 8V25C0 26.1 0.9 27 2 27H30C31.1 27 32 26.1 32 25V8C32 6.9 31.1 6 30 6ZM1 25V10.8L11.1 16.4L1 25.3C1 25.2 1 25.1 1 25ZM30 26H2C1.9 26 1.9 26 1.8 26L12.1 16.9L15.3 18.7C15.7 18.9 16.3 18.9 16.7 18.7L20.1 16.9L30.4 26C30.3 26 30.1 26 30 26ZM31 25V25.1L21 16.3L31 10.8V25ZM31 9.7L16.2 17.8C16.1 17.9 15.9 17.9 15.7 17.8L1 9.7V8C1 7.5 1.5 7 2 7H30C30.5 7 31 7.5 31 8V9.7Z" fill="black"></path></g><defs><clipPath id="clip0"><rect width="32" height="32" fill="white"></rect></clipPath></defs></svg>