<svg xmlns="http://www.w3.org/2000/svg" width="25" height="25" viewBox="0 0 25 25" fill="none"><path d="M12.25 6.21094C13.3438 6.21094 14.3828 6.53906 15.3672 7.08594C16.3516 7.63281 17.1172 8.39844 17.6641 9.38281C18.2109 10.3672 18.5391 11.4062 18.5391 12.5C18.5391 13.6484 18.2109 14.6875 17.6641 15.6719C17.1172 16.6562 16.3516 17.4219 15.3672 17.9688C14.3828 18.5156 13.3438 18.7891 12.25 18.7891C11.1016 18.7891 10.0625 18.5156 9.07812 17.9688C8.09375 17.4219 7.32812 16.6562 6.78125 15.6719C6.23438 14.6875 5.96094 13.6484 5.96094 12.5C5.96094 11.4062 6.23438 10.3672 6.78125 9.38281C7.32812 8.39844 8.09375 7.63281 9.07812 7.08594C10.0625 6.53906 11.1016 6.21094 12.25 6.21094ZM12.25 16.6016C13.3438 16.6016 14.3281 16.2188 15.1484 15.3984C15.9141 14.6328 16.3516 13.6484 16.3516 12.5C16.3516 11.4062 15.9141 10.4219 15.1484 9.60156C14.3281 8.83594 13.3438 8.39844 12.25 8.39844C11.1016 8.39844 10.1172 8.83594 9.35156 9.60156C8.53125 10.4219 8.14844 11.4062 8.14844 12.5C8.14844 13.6484 8.53125 14.6328 9.35156 15.3984C10.1172 16.2188 11.1016 16.6016 12.25 16.6016ZM20.2891 5.9375C20.2891 5.55469 20.125 5.22656 19.8516 4.89844C19.5234 4.625 19.1953 4.46094 18.8125 4.46094C18.375 4.46094 18.0469 4.625 17.7734 4.89844C17.4453 5.22656 17.3359 5.55469 17.3359 5.9375C17.3359 6.375 17.4453 6.70312 17.7734 6.97656C18.0469 7.30469 18.375 7.41406 18.8125 7.41406C19.1953 7.41406 19.5234 7.30469 19.7969 6.97656C20.0703 6.70312 20.2344 6.375 20.2891 5.9375ZM24.4453 7.41406C24.4453 8.45312 24.5 10.1484 24.5 12.5C24.5 14.9062 24.4453 16.6016 24.3906 17.6406C24.3359 18.6797 24.1719 19.5547 23.9531 20.3203C23.625 21.25 23.0781 22.0703 22.4219 22.7266C21.7656 23.3828 20.9453 23.875 20.0703 24.2031C19.3047 24.4766 18.375 24.6406 17.3359 24.6953C16.2969 24.75 14.6016 24.75 12.25 24.75C9.84375 24.75 8.14844 24.75 7.10938 24.6953C6.07031 24.6406 5.19531 24.4766 4.42969 24.1484C3.5 23.875 2.67969 23.3828 2.02344 22.7266C1.36719 22.0703 0.875 21.25 0.546875 20.3203C0.273438 19.5547 0.109375 18.6797 0.0546875 17.6406C0 16.6016 0 14.9062 0 12.5C0 10.1484 0 8.45312 0.0546875 7.41406C0.109375 6.375 0.273438 5.44531 0.546875 4.67969C0.875 3.80469 1.36719 2.98438 2.02344 2.32812C2.67969 1.67188 3.5 1.125 4.42969 0.796875C5.19531 0.578125 6.07031 0.414062 7.10938 0.359375C8.14844 0.304688 9.84375 0.25 12.25 0.25C14.6016 0.25 16.2969 0.304688 17.3359 0.359375C18.375 0.414062 19.3047 0.578125 20.0703 0.796875C20.9453 1.125 21.7656 1.67188 22.4219 2.32812C23.0781 2.98438 23.625 3.80469 23.9531 4.67969C24.1719 5.44531 24.3359 6.375 24.4453 7.41406ZM21.8203 19.7188C22.0391 19.1172 22.1484 18.1328 22.2578 16.7656C22.2578 16 22.3125 14.8516 22.3125 13.375V11.625C22.3125 10.1484 22.2578 9 22.2578 8.23438C22.1484 6.86719 22.0391 5.88281 21.8203 5.28125C21.3828 4.1875 20.5625 3.36719 19.4688 2.92969C18.8672 2.71094 17.8828 2.60156 16.5156 2.49219C15.6953 2.49219 14.5469 2.4375 13.125 2.4375H11.375C9.89844 2.4375 8.75 2.49219 7.98438 2.49219C6.61719 2.60156 5.63281 2.71094 5.03125 2.92969C3.88281 3.36719 3.11719 4.1875 2.67969 5.28125C2.46094 5.88281 2.29688 6.86719 2.24219 8.23438C2.1875 9.05469 2.1875 10.2031 2.1875 11.625V13.375C2.1875 14.8516 2.1875 16 2.24219 16.7656C2.29688 18.1328 2.46094 19.1172 2.67969 19.7188C3.11719 20.8672 3.9375 21.6328 5.03125 22.0703C5.63281 22.2891 6.61719 22.4531 7.98438 22.5078C8.75 22.5625 9.89844 22.5625 11.375 22.5625H13.125C14.6016 22.5625 15.75 22.5625 16.5156 22.5078C17.8828 22.4531 18.8672 22.2891 19.4688 22.0703C20.5625 21.6328 21.3828 20.8125 21.8203 19.7188Z" fill="black"></path></svg>