<svg xmlns="http://www.w3.org/2000/svg" width="32" height="32" viewBox="0 0 32 32" fill="none"><path d="M27 11C27 17.0751 22 24.5 16 32C9.84974 24.5 5 17.0751 5 11C5 4.92487 9.92487 0 16 0C22.0751 0 27 4.92487 27 11Z" fill="white"></path><path d="M16.0002 6C15.0113 6 14.0446 6.29324 13.2223 6.84265C12.4001 7.39206 11.7592 8.17295 11.3808 9.08658C11.0023 10.0002 10.9033 11.0055 11.0962 11.9755C11.2892 12.9454 11.7654 13.8363 12.4646 14.5355C13.1639 15.2348 14.0548 15.711 15.0247 15.9039C15.9946 16.0969 17 15.9978 17.9136 15.6194C18.8272 15.241 19.6081 14.6001 20.1575 13.7779C20.7069 12.9556 21.0002 11.9889 21.0002 11C21.0002 9.67392 20.4734 8.40215 19.5357 7.46447C18.598 6.52678 17.3262 6 16.0002 6ZM16.0002 15C15.209 15 14.4357 14.7654 13.7779 14.3259C13.1201 13.8864 12.6074 13.2616 12.3046 12.5307C12.0019 11.7998 11.9227 10.9956 12.077 10.2196C12.2314 9.44372 12.6123 8.73098 13.1717 8.17157C13.7311 7.61216 14.4439 7.2312 15.2198 7.07686C15.9957 6.92252 16.8 7.00173 17.5309 7.30448C18.2618 7.60723 18.8865 8.11992 19.326 8.77772C19.7656 9.43552 20.0002 10.2089 20.0002 11C20.0002 12.0609 19.5787 13.0783 18.8286 13.8284C18.0784 14.5786 17.061 15 16.0002 15ZM16.0002 6C15.0113 6 14.0446 6.29324 13.2223 6.84265C12.4001 7.39206 11.7592 8.17295 11.3808 9.08658C11.0023 10.0002 10.9033 11.0055 11.0962 11.9755C11.2892 12.9454 11.7654 13.8363 12.4646 14.5355C13.1639 15.2348 14.0548 15.711 15.0247 15.9039C15.9946 16.0969 17 15.9978 17.9136 15.6194C18.8272 15.241 19.6081 14.6001 20.1575 13.7779C20.7069 12.9556 21.0002 11.9889 21.0002 11C21.0002 9.67392 20.4734 8.40215 19.5357 7.46447C18.598 6.52678 17.3262 6 16.0002 6ZM16.0002 15C15.209 15 14.4357 14.7654 13.7779 14.3259C13.1201 13.8864 12.6074 13.2616 12.3046 12.5307C12.0019 11.7998 11.9227 10.9956 12.077 10.2196C12.2314 9.44372 12.6123 8.73098 13.1717 8.17157C13.7311 7.61216 14.4439 7.2312 15.2198 7.07686C15.9957 6.92252 16.8 7.00173 17.5309 7.30448C18.2618 7.60723 18.8865 8.11992 19.326 8.77772C19.7656 9.43552 20.0002 10.2089 20.0002 11C20.0002 12.0609 19.5787 13.0783 18.8286 13.8284C18.0784 14.5786 17.061 15 16.0002 15ZM16.0002 6C15.0113 6 14.0446 6.29324 13.2223 6.84265C12.4001 7.39206 11.7592 8.17295 11.3808 9.08658C11.0023 10.0002 10.9033 11.0055 11.0962 11.9755C11.2892 12.9454 11.7654 13.8363 12.4646 14.5355C13.1639 15.2348 14.0548 15.711 15.0247 15.9039C15.9946 16.0969 17 15.9978 17.9136 15.6194C18.8272 15.241 19.6081 14.6001 20.1575 13.7779C20.7069 12.9556 21.0002 11.9889 21.0002 11C21.0002 9.67392 20.4734 8.40215 19.5357 7.46447C18.598 6.52678 17.3262 6 16.0002 6ZM16.0002 15C15.209 15 14.4357 14.7654 13.7779 14.3259C13.1201 13.8864 12.6074 13.2616 12.3046 12.5307C12.0019 11.7998 11.9227 10.9956 12.077 10.2196C12.2314 9.44372 12.6123 8.73098 13.1717 8.17157C13.7311 7.61216 14.4439 7.2312 15.2198 7.07686C15.9957 6.92252 16.8 7.00173 17.5309 7.30448C18.2618 7.60723 18.8865 8.11992 19.326 8.77772C19.7656 9.43552 20.0002 10.2089 20.0002 11C20.0002 12.0609 19.5787 13.0783 18.8286 13.8284C18.0784 14.5786 17.061 15 16.0002 15ZM16.0002 0C13.0828 0 10.2849 1.15893 8.22199 3.22183C6.15909 5.28473 5.00017 8.08262 5.00017 11C5.00017 11.23 5.00017 11.45 5.00017 11.68C5.00017 11.91 5.00017 12 5.00017 12.16C4.99474 12.2266 4.99474 12.2934 5.00017 12.36C5.00017 12.66 5.07017 12.95 5.13017 13.26C5.19017 13.57 5.31017 14.18 5.44017 14.65C5.44017 14.83 5.53017 15 5.58017 15.17C5.81031 15.9403 6.08068 16.698 6.39017 17.44C6.46017 17.62 6.54017 17.8 6.61017 17.97C6.81017 18.4233 7.02017 18.8733 7.24017 19.32C7.34017 19.53 7.45017 19.74 7.56017 19.95C7.79017 20.39 8.03017 20.83 8.29017 21.28C8.45017 21.57 8.63017 21.87 8.81017 22.17C9.10017 22.66 9.41017 23.17 9.74017 23.66C10.0702 24.15 10.2902 24.51 10.5802 24.93C10.6265 25.0145 10.68 25.0948 10.7402 25.17C11.0202 25.58 11.3102 26 11.6102 26.41C11.9102 26.82 12.2702 27.33 12.6102 27.79C12.9502 28.25 13.2835 28.71 13.6102 29.17L14.6102 30.48L15.1802 31.19L16.0002 32L16.6402 31.2C17.9302 29.57 19.1702 27.94 20.3002 26.33C20.5502 25.99 20.7802 25.66 21.0102 25.33C21.5902 24.49 22.1402 23.66 22.6502 22.84C22.8402 22.52 23.0402 22.2 23.2202 21.89C23.4002 21.58 23.7202 21.03 23.9602 20.6C24.0802 20.39 24.1902 20.17 24.3002 19.96C24.9148 18.8219 25.4494 17.6424 25.9002 16.43C25.9802 16.22 26.0502 16.01 26.1202 15.8C26.5363 14.6267 26.8115 13.4082 26.9402 12.17C26.9402 12.01 26.9402 11.85 26.9402 11.69C26.9402 11.53 26.9402 11.24 26.9402 11.01C26.9429 8.10125 25.7933 5.30985 23.7431 3.24651C21.6929 1.18316 18.9089 0.0158647 16.0002 0V0ZM22.8802 20.48C20.8368 23.9532 18.5371 27.2691 16.0002 30.4C13.4223 27.291 11.1076 23.9729 9.08017 20.48C7.12017 17 6.00017 13.79 6.00017 11C6.00017 8.34784 7.05373 5.8043 8.9291 3.92893C10.8045 2.05357 13.348 1 16.0002 1C18.6523 1 21.1959 2.05357 23.0712 3.92893C24.9466 5.8043 26.0002 8.34784 26.0002 11C26.0002 13.78 24.8502 17 22.8802 20.48ZM16.0002 6C15.0113 6 14.0446 6.29324 13.2223 6.84265C12.4001 7.39206 11.7592 8.17295 11.3808 9.08658C11.0023 10.0002 10.9033 11.0055 11.0962 11.9755C11.2892 12.9454 11.7654 13.8363 12.4646 14.5355C13.1639 15.2348 14.0548 15.711 15.0247 15.9039C15.9946 16.0969 17 15.9978 17.9136 15.6194C18.8272 15.241 19.6081 14.6001 20.1575 13.7779C20.7069 12.9556 21.0002 11.9889 21.0002 11C21.0002 9.67392 20.4734 8.40215 19.5357 7.46447C18.598 6.52678 17.3262 6 16.0002 6ZM16.0002 15C15.209 15 14.4357 14.7654 13.7779 14.3259C13.1201 13.8864 12.6074 13.2616 12.3046 12.5307C12.0019 11.7998 11.9227 10.9956 12.077 10.2196C12.2314 9.44372 12.6123 8.73098 13.1717 8.17157C13.7311 7.61216 14.4439 7.2312 15.2198 7.07686C15.9957 6.92252 16.8 7.00173 17.5309 7.30448C18.2618 7.60723 18.8865 8.11992 19.326 8.77772C19.7656 9.43552 20.0002 10.2089 20.0002 11C20.0002 12.0609 19.5787 13.0783 18.8286 13.8284C18.0784 14.5786 17.061 15 16.0002 15ZM16.0002 6C15.0113 6 14.0446 6.29324 13.2223 6.84265C12.4001 7.39206 11.7592 8.17295 11.3808 9.08658C11.0023 10.0002 10.9033 11.0055 11.0962 11.9755C11.2892 12.9454 11.7654 13.8363 12.4646 14.5355C13.1639 15.2348 14.0548 15.711 15.0247 15.9039C15.9946 16.0969 17 15.9978 17.9136 15.6194C18.8272 15.241 19.6081 14.6001 20.1575 13.7779C20.7069 12.9556 21.0002 11.9889 21.0002 11C21.0002 9.67392 20.4734 8.40215 19.5357 7.46447C18.598 6.52678 17.3262 6 16.0002 6ZM16.0002 15C15.209 15 14.4357 14.7654 13.7779 14.3259C13.1201 13.8864 12.6074 13.2616 12.3046 12.5307C12.0019 11.7998 11.9227 10.9956 12.077 10.2196C12.2314 9.44372 12.6123 8.73098 13.1717 8.17157C13.7311 7.61216 14.4439 7.2312 15.2198 7.07686C15.9957 6.92252 16.8 7.00173 17.5309 7.30448C18.2618 7.60723 18.8865 8.11992 19.326 8.77772C19.7656 9.43552 20.0002 10.2089 20.0002 11C20.0002 12.0609 19.5787 13.0783 18.8286 13.8284C18.0784 14.5786 17.061 15 16.0002 15Z" fill="black"></path><path d="M16 15C18.2091 15 20 13.2091 20 11C20 8.79086 18.2091 7 16 7C13.7909 7 12 8.79086 12 11C12 13.2091 13.7909 15 16 15Z" fill="#F2EFEA"></path></svg>