<svg xmlns="http://www.w3.org/2000/svg" width="32" height="32" viewBox="0 0 32 32" fill="none"><path d="M7 2C7 0.895431 7.89543 0 9 0H23C24.1046 0 25 0.895431 25 2V30C25 31.1046 24.1046 32 23 32H9C7.89543 32 7 31.1046 7 30V2Z" fill="white"></path><path d="M16 26C15.8022 26 15.6089 26.0586 15.4444 26.1685C15.28 26.2784 15.1518 26.4346 15.0761 26.6173C15.0004 26.8 14.9806 27.0011 15.0192 27.1951C15.0578 27.3891 15.153 27.5673 15.2929 27.7071C15.4327 27.847 15.6109 27.9422 15.8049 27.9808C15.9989 28.0194 16.2 27.9996 16.3827 27.9239C16.5654 27.8482 16.7216 27.72 16.8315 27.5556C16.9414 27.3911 17 27.1978 17 27C17 26.7348 16.8946 26.4804 16.7071 26.2929C16.5196 26.1054 16.2652 26 16 26ZM14 4V5H18V4H14ZM23 0H9C8.46957 0 7.96086 0.210714 7.58579 0.585786C7.21071 0.960859 7 1.46957 7 2V30C7 30.5304 7.21071 31.0391 7.58579 31.4142C7.96086 31.7893 8.46957 32 9 32H23C23.5304 32 24.0391 31.7893 24.4142 31.4142C24.7893 31.0391 25 30.5304 25 30V2C25 1.46957 24.7893 0.960859 24.4142 0.585786C24.0391 0.210714 23.5304 0 23 0V0ZM24 30C24 30.2652 23.8946 30.5196 23.7071 30.7071C23.5196 30.8946 23.2652 31 23 31H9C8.73478 31 8.48043 30.8946 8.29289 30.7071C8.10536 30.5196 8 30.2652 8 30V2C8 1.73478 8.10536 1.48043 8.29289 1.29289C8.48043 1.10536 8.73478 1 9 1H23C23.2652 1 23.5196 1.10536 23.7071 1.29289C23.8946 1.48043 24 1.73478 24 2V30ZM14 5H18V4H14V5ZM16 26C15.8022 26 15.6089 26.0586 15.4444 26.1685C15.28 26.2784 15.1518 26.4346 15.0761 26.6173C15.0004 26.8 14.9806 27.0011 15.0192 27.1951C15.0578 27.3891 15.153 27.5673 15.2929 27.7071C15.4327 27.847 15.6109 27.9422 15.8049 27.9808C15.9989 28.0194 16.2 27.9996 16.3827 27.9239C16.5654 27.8482 16.7216 27.72 16.8315 27.5556C16.9414 27.3911 17 27.1978 17 27C17 26.7348 16.8946 26.4804 16.7071 26.2929C16.5196 26.1054 16.2652 26 16 26ZM14 4V5H18V4H14ZM16 26C15.8022 26 15.6089 26.0586 15.4444 26.1685C15.28 26.2784 15.1518 26.4346 15.0761 26.6173C15.0004 26.8 14.9806 27.0011 15.0192 27.1951C15.0578 27.3891 15.153 27.5673 15.2929 27.7071C15.4327 27.847 15.6109 27.9422 15.8049 27.9808C15.9989 28.0194 16.2 27.9996 16.3827 27.9239C16.5654 27.8482 16.7216 27.72 16.8315 27.5556C16.9414 27.3911 17 27.1978 17 27C17 26.7348 16.8946 26.4804 16.7071 26.2929C16.5196 26.1054 16.2652 26 16 26Z" fill="black"></path></svg>